<?xml version="1.0" standalone="no"?>
<!DOCTYPE svg PUBLIC "-//W3C//DTD SVG 20010904//EN"
 "http://www.w3.org/TR/2001/REC-SVG-20010904/DTD/svg10.dtd">
<svg version="1.0" xmlns="http://www.w3.org/2000/svg"
 width="320.000000pt" height="320.000000pt" viewBox="0 0 320.000000 320.000000"
 preserveAspectRatio="xMidYMid meet">

<g transform="translate(0.000000,320.000000) scale(0.100000,-0.100000)"
fill="#000000" stroke="none">
<path d="M1195 2489 c-308 -60 -566 -111 -572 -114 -10 -3 -13 -166 -13 -768
l0 -763 568 -119 c312 -65 575 -120 585 -123 16 -4 17 48 17 997 0 795 -3
1001 -12 1000 -7 -1 -265 -50 -573 -110z m116 -567 c106 -55 154 -165 147
-341 -3 -97 -6 -113 -36 -174 -39 -79 -87 -122 -160 -143 -120 -35 -237 26
-295 155 -28 64 -36 236 -13 314 18 61 68 141 107 169 73 54 170 62 250 20z"/>
<path d="M1144 1802 c-52 -33 -77 -100 -77 -202 0 -138 47 -213 134 -213 21 0
50 8 65 17 87 58 94 307 10 385 -34 32 -93 37 -132 13z"/>
<path d="M1850 1981 l0 -199 70 -42 c53 -32 75 -40 88 -34 57 28 582 391 582
402 0 8 -13 27 -29 43 l-29 29 -341 0 -341 0 0 -199z"/>
<path d="M2290 1739 c-157 -104 -291 -189 -298 -189 -7 0 -40 18 -72 40 -32
22 -61 40 -64 40 -4 0 -6 -117 -6 -260 l0 -260 336 0 c211 0 342 4 355 10 47
26 49 45 49 440 0 203 -3 370 -7 369 -5 0 -136 -86 -293 -190z"/>
</g>
</svg>
